# xmcd
#
# Track frame offsets:
#       150
#       12747
#       26373
#       39033
#       51991
#       65133
#       77437
#       89027
#       102551
#       115017
#       127432
#       140915
#       153861
#       166390
#       177796
#       193485
#       208239
#       219093
#
# Disc length: 3084 seconds
#
# Revision: 2
# Processed by: cddbd v1.4PL0 Copyright (c) Steve Scherf et al.
# Submitted via: WhereIsIt 3.51
#
DISCID=0c0c0a12
DTITLE=Various Artist - Nothing But the Blues: Disc 06
DYEAR=1900
DGENRE=
TTITLE0=Somebody's been using that thing
TTITLE1=Black cat rag
TTITLE2=Pig meat strut
TTITLE3=Guitar rag
TTITLE4=Saturday night rub
TTITLE5=Eagle riding papa
TTITLE6=Papa's getting hot
TTITLE7=Nancy Jane
TTITLE8=That's the way she likes it
TTITLE9=House rent stomp
TTITLE10=Big Bill Blues
TTITLE11=My Texas blues
TTITLE12=3 six shooters blues
TTITLE13=Pig meat blues
TTITLE14=Down in the basement blues
TTITLE15=Starvation blues
TTITLE16=Grandma's Farm
TTITLE17=Skoodle do do
EXTD=
EXTT0=
EXTT1=
EXTT2=
EXTT3=
EXTT4=
EXTT5=
EXTT6=
EXTT7=
EXTT8=
EXTT9=
EXTT10=
EXTT11=
EXTT12=
EXTT13=
EXTT14=
EXTT15=
EXTT16=
EXTT17=
PLAYORDER=
